<svg width="185" height="100" viewBox="0 0 185 100" fill="none" xmlns="http://www.w3.org/2000/svg">
<rect width="185" height="100" rx="5" fill="white"/>
<rect x="9" y="9" width="167" height="81" rx="5" fill="#486D42"/>
<path d="M31.5 18H156C158.714 25.7397 161.676 27.984 169 29V72.5C162.041 73.8652 159.684 76.1005 158 82.5H28C27.0374 75.7146 25.2439 73.0626 17 72.5V29C25.4172 27.1607 28.6653 24.8158 31.5 18Z" fill="#70976A"/>
<circle cx="43" cy="50" r="10" fill="#486D42"/>
<ellipse cx="93" cy="50" rx="18" ry="20" fill="#486D42"/>
<circle cx="143" cy="50" r="10" fill="#486D42"/>
<path d="M75.6766 40.8991C74.8995 41.2132 74.4006 41.9787 74.4271 42.8165L75 60.9717C75.0201 61.6083 75.3482 62.2034 75.8777 62.5574C90.2283 72.151 98.6601 71.1326 112.968 62.588C113.585 62.2196 113.955 61.541 113.934 60.8227L113.362 41.4194C113.337 40.5467 112.748 39.7915 111.908 39.5539L93.2122 34.2646C92.7851 34.1438 92.3299 34.1685 91.9183 34.3348L75.6766 40.8991Z" fill="black"/>
<path d="M67.2447 39.2188C69.8405 48.0313 64 57.5782 67.2447 62.7188" stroke="#CFA719"/>
<path d="M64.6125 41.6713C63.8007 41.3651 63.7374 40.241 64.5098 39.8456L89.407 27.0996C89.631 26.985 89.8899 26.959 90.1321 27.0267L123.295 36.3045C124.135 36.5396 124.293 37.6629 123.549 38.1196L97.9602 53.8366C97.6968 53.9985 97.3732 54.0293 97.0839 53.9202L64.6125 41.6713Z" fill="#1F1E1E" stroke="#1F1E1E"/>
<path d="M66.5957 61.2501V73.0001" stroke="#CFA719"/>
<path d="M66.5957 61.2501L69.1914 73.0001" stroke="#CFA719"/>
<path d="M66.5957 61.2501L72.1987 71.5693" stroke="#CFA719"/>
<path d="M66.5957 61.2501L75.1623 68.5101" stroke="#CFA719"/>
</svg>
